<svg xmlns="http://www.w3.org/2000/svg" width="30" height="30" viewBox="0 0 30 30">
<defs>
    <style>
      .cls-arrow-circle-1 {
        fill: #fff;
        fill-rule: evenodd;
      }
    </style>
  </defs>
  <path class="cls-arrow-circle-1" d="M305,622a15,15,0,1,0-15,15A15.017,15.017,0,0,0,305,622Zm-28.5,0A13.5,13.5,0,1,1,290,635.5,13.516,13.516,0,0,1,276.5,622Zm14.033,7.047,4.215-4.215a0.748,0.748,0,0,0-1.058-1.058l-2.937,2.936V615.485a0.752,0.752,0,1,0-1.5,0V626.7l-2.937-2.936a0.748,0.748,0,0,0-1.058,1.058l4.215,4.215A0.761,0.761,0,0,0,290.532,629.047Z" transform="translate(-275 -607)"/>
</svg>
