<svg id="Layer_1" data-name="Layer 1" xmlns="http://www.w3.org/2000/svg" xmlns:xlink="http://www.w3.org/1999/xlink" viewBox="0 0 324.92 76.73"><defs><style>.cls-1,.cls-logo-10,.cls-logo-2,.cls-logo-3,.cls-logo-4,.cls-logo-5,.cls-logo-6,.cls-logo-7,.cls-logo-8,.cls-logo-9{fill-rule:evenodd;}.cls-logo-1{fill:url(#logo-GradientFill_1);}.cls-logo-2{fill:url(#logo-GradientFill_3);}.cls-logo-3{fill:url(#logo-GradientFill_1-2);}.cls-logo-4{fill:url(#logo-GradientFill_2);}.cls-logo-5{fill:url(#logo-GradientFill_3-2);}.cls-logo-6{fill:url(#logo-GradientFill_1-3);}.cls-logo-7{fill:url(#logo-GradientFill_2-2);}.cls-logo-8{fill:url(#logo-GradientFill_3-3);}.cls-logo-9{fill:url(#logo-GradientFill_4);}.cls-logo-10{fill:#fff;}.cls-logo-11{fill:#38373a;}</style><linearGradient id="GradientFill_1" x1="199.82" y1="619.34" x2="240.46" y2="670.13" gradientUnits="userSpaceOnUse"><stop offset="0" stop-color="#91a2ab"/><stop offset="0.01" stop-color="#768994"/><stop offset="0.1" stop-color="#95a9b3"/><stop offset="0.19" stop-color="#91a2ab"/><stop offset="0.68" stop-color="#8fa0a8"/><stop offset="0.83" stop-color="#e7e7e6"/><stop offset="0.99" stop-color="#91a2ab"/><stop offset="1" stop-color="#91a2ab"/></linearGradient><linearGradient id="GradientFill_3" x1="204.99" y1="615.79" x2="247.99" y2="669.54" gradientUnits="userSpaceOnUse"><stop offset="0" stop-color="#c1c9cd"/><stop offset="0.22" stop-color="#c1c9cd"/><stop offset="0.41" stop-color="#9babb4"/><stop offset="0.65" stop-color="#9babb4"/><stop offset="0.75" stop-color="#d5d7d9"/><stop offset="0.85" stop-color="#9babb4"/><stop offset="1" stop-color="#9babb4"/></linearGradient><linearGradient id="GradientFill_1-2" x1="255.08" y1="672.12" x2="189.08" y2="682.17" xlink:href="#logo-GradientFill_1"/><linearGradient id="GradientFill_2" x1="252.37" y1="672.16" x2="239.1" y2="674.18" gradientUnits="userSpaceOnUse"><stop offset="0" stop-color="#7c929b"/><stop offset="1" stop-color="#acbbc3"/></linearGradient><linearGradient id="GradientFill_3-2" x1="253.07" y1="678.75" x2="184.26" y2="689.23" xlink:href="#logo-GradientFill_3"/><linearGradient id="GradientFill_1-3" x1="179.27" y1="692.65" x2="203.5" y2="630.62" xlink:href="#logo-GradientFill_1"/><linearGradient id="GradientFill_2-2" x1="180.68" y1="690.03" x2="183.56" y2="682.68" xlink:href="#logo-GradientFill_2"/><linearGradient id="GradientFill_3-3" x1="175" y1="686.37" x2="199.07" y2="624.76" xlink:href="#logo-GradientFill_3"/><linearGradient id="GradientFill_4" x1="211.23" y1="691.95" x2="211.23" y2="615.82" gradientUnits="userSpaceOnUse"><stop offset="0" stop-color="#143072"/><stop offset="1" stop-color="#398fcd"/></linearGradient></defs><title>Atom_logo1</title><path class="cls-logo-1" d="M201.9,617.86l.38-.06a12.88,12.88,0,0,1,1.56,0,17.49,17.49,0,0,1,6.51,1.56l.58.29.54.3.76.44c.45.27.69.42,1.26.8,3.69,2.41,6.58,5.56,9.61,10.2l.34.45A83.62,83.62,0,0,1,232.67,652l.31,1a137.81,137.81,0,0,1,4.08,20.71,2.29,2.29,0,0,1-.28-.31q-.68-3.59-1.56-7.29c-4.2-17.45-10.91-31.77-17.4-38.55a20.3,20.3,0,0,0-3.57-3.31,26,26,0,0,0-2.83-2l0,0,0,0h0l0,0,0,0,0,0h0l0,0,0,0,0,0h0l0,0,0,0,0,0h0l-.11-.06h0c-.34-.19-.69-.37-1-.55h-.42l-.06,0h-.06q-.49-.23-1-.42h-.53a8.51,8.51,0,0,0-3.1-.55h0a9,9,0,0,0-8.53,7.52l6.77-2.45-9.72,3.51A21,21,0,0,1,195,624h0l.1-.18v0l.1-.18v0l.1-.18v0l0,0,.08-.14,0-.05.11-.17h0l0,0,.09-.14,0-.05.1-.16h0l.11-.16,0-.06.08-.11,0-.05.11-.16,0,0,.08-.11,0-.06.11-.14,0-.05.08-.1.06-.07.06-.08.1-.12.07-.09,0-.06.09-.1.07-.08.09-.1.06-.07.07-.08.05-.06h0l.1-.11h0l.09-.09,0,0,.09-.09h0l.11-.1.07-.06.07-.06L198,620l.08-.07.12-.1,0,0,.09-.08,0,0,.09-.07.11-.09h0l.1-.08,0,0,.09-.07.11-.08.1-.07,0,0,.09-.06.12-.08.09-.06,0,0,.1-.06,0,0,.18-.11,0,0,.11-.06h0l.22-.12h0l.1-.05,0,0,.21-.1h0l.1,0,0,0,.33-.13h0l.1,0,.05,0,.19-.06h0l.12,0h0l.21-.06h0l.1,0h0l.11,0Zm5.61,4.6h0Zm-.07,0h-.07l.07,0Zm-.22.05h0Zm-.07,0h-.07l-.06,0,.13,0Zm-.14,0h0Zm-.08,0h-.06l.06,0Zm-.23.07h0l-.07,0h0l.12,0Zm-.13,0-.06,0h0l0,0,.13,0Zm-.15.05,0,0h0l-.07,0h0l-.07,0h-.06l.29-.12Zm-.35.14h0Zm-.09,0h0l-.19.09h0l.21-.1Zm-.29.14h0l0,0h0l.07,0Zm-.65.35-.42.27.35-.22h0l.06,0Zm-.44.28h0l0,0,.05,0Zm-.2.14h0l-.09.07.13-.09Zm-.28.2,0,0,0,0,.07,0Zm-1,.8h0l-.05,0Z" transform="translate(-169.81 -617.36)"/><path class="cls-logo-2" d="M225.35,623.82c4.05,3.65,8,9.64,11,16.94q.95,2.07,1.78,4.3.53,1.42,1,2.84a130.78,130.78,0,0,1,4.64,15.61c.69,3,1.29,6,1.79,8.91l-6.3,1.89a2.69,2.69,0,0,1-.58.06,2.57,2.57,0,0,1-1.75-.67h0l0-.35h0l0-.35h0l0-.35h0l0-.35h0l0-.35h0l0-.35h0l0-.35,0-.35h0l0-.35h0l0-.35-.05-.34h0l-.05-.34-.05-.34h0l-.05-.34-.05-.34h0l-.05-.34-.05-.34-.06-.34h0l-.06-.34h0l-.06-.34h0l-.06-.34-.06-.33h0l-.06-.33h0l-.06-.33h0l-.06-.33-.06-.33-.06-.33h0l-.06-.33-.06-.33-.06-.33-.06-.33-.06-.33-.06-.32-.07-.32-.07-.32-.07-.32-.07-.32h0l-.07-.32-.07-.32-.07-.32-.07-.32-.07-.31-.07-.31-.07-.31-.07-.31-.07-.31-.07-.31-.07-.31-.07-.31h0l-.07-.31-.07-.31-.08-.3-.08-.3-.08-.3-.08-.3-.08-.3-.08-.3-.08-.3-.08-.3-.08-.3-.08-.29-.08-.29-.08-.29-.08-.29-.31-1a83.62,83.62,0,0,0-9.24-20.19l-.34-.45c-3-4.64-5.92-7.79-9.61-10.2-.57-.38-.8-.54-1.26-.8l-.76-.44-.54-.3-.58-.29a17.49,17.49,0,0,0-6.51-1.56h-1l10.37-.4h0c4-.09,8.23,2.22,12.29,6.46ZM201,618.06h0Zm0,0h0Zm0,0h0Z" transform="translate(-169.81 -617.36)"/><path class="cls-logo-3" d="M252.3,675.12c0,.1-.09.24-.14.35a12.88,12.88,0,0,1-.74,1.38,17.49,17.49,0,0,1-4.6,4.86l-.54.35-.53.32-.76.44c-.46.26-.71.39-1.32.69-3.93,2-8.1,2.92-13.64,3.22l-.56.07a83.62,83.62,0,0,1-22.1-2.1l-1-.23a137.8,137.8,0,0,1-20-6.82,2.29,2.29,0,0,1,.41-.09q3.45,1.21,7.09,2.29c17.21,5.09,33,6.43,42.08,4.21a20.3,20.3,0,0,0,4.66-1.44,26,26,0,0,0,3.11-1.47l0,0,0,0h0l0,0,0,0,0,0h0l0,0,0,0,0,0h0l0,0,0,0,0,0h0l.1-.06h0c.34-.2.67-.41,1-.62h0l0,0,0,0,0,0h0l0,0,0,0,0,0,0,0h0l0,0,0,0,0,0h0l0,0,0,0,0,0,.05,0,0,0,0,0q.44-.31.86-.65l0,0,0,0,0,0h0l0,0,0,0,0,0,0,0,0,0,0,0,0,0h0l0,0,0,0,0,0h0l0,0,0,0,0,0,0,0h0a8.51,8.51,0,0,0,2-2.41h0a9,9,0,0,0-2.25-11.15l-1.26,7.09,1.82-10.17a21,21,0,0,1,3.13,3.82h0l.11.17v0l.11.18v0l.1.18v0l0,0,.08.14,0,.06.1.18h0l0,0,.08.15,0,.06.09.17v0h0l.08.17,0,.07.06.13,0,.06.08.18,0,.05.05.12,0,.07.07.17,0,.06,0,.11,0,.09,0,.09.05.14,0,.11,0,.07,0,.12,0,.1,0,.12,0,.09,0,.1,0,.08h0l0,.14h0l0,.12v0l0,.12h0l0,.14,0,.09,0,.09,0,.08,0,.1,0,.15V671l0,.12v0l0,.11,0,.14h0l0,.13v.15l0,.14v.73q0,.11,0,.21v.17c0,.08,0,.17,0,.25h0v.16c0,.08,0,.16,0,.24h0v.15q0,.18,0,.36v0l0,.1v.06l0,.2v0l0,.12h0l-.05.21v0l0,.1v0h0l0,.11Zm-6.79,2.56,0,0h0l0,.05Zm0-.07,0-.05h0l0,.07Zm.06-.22v0h0v.05Zm0-.07v-.05h0v-.06l0,.13Zm0-.14v0h0v0Zm0-.08v0h0v.06Zm0-.23v-.12h0l0,.13Zm0-.14v-.14l0,.14Zm0-.15v0h0v-.24h0c0,.11,0,.21,0,.31Zm.05-.37h0v0Zm0-.1h0c0-.07,0-.14,0-.21h0c0,.08,0,.16,0,.23Zm0-.32h0v0h0v.08Zm0-.74c0-.16,0-.33,0-.5,0,.14,0,.27,0,.41h0V675Zm0-.52h0v0Zm0-.24v0s0-.07,0-.11l0,.16Zm0-.35v0Zm-.21-1.23v0l0-.07Z" transform="translate(-169.81 -617.36)"/><path class="cls-logo-4" d="M244.28,680.36l-.57.78c.59-.33,1.14-.67,1.68-1s1.11-.8,1.61-1.22a8.51,8.51,0,0,0,2-2.41h0a9,9,0,0,0-2.25-11.15l-1.26,7.09,0,.17h0l0,.07v0l0,.09h0v0l0,.08V673l0,.08h0l0,.11v.24h0v.14l0,.21h0V674h0l0,.21v.14h0v.13q0,.22,0,.44h0q0,.34,0,.68v.11h0v.1h0c0,.07,0,.14,0,.21h0v.1h0v.31h0v.21h0v.12l0,.18h0l0,.1h0v.1h0l0,.07h0v0l0,.07h0v0l0,.07h0l0,.07h0l0,0v0h0v0h0l-.16.46-.11.33h0A7.78,7.78,0,0,1,244.28,680.36Z" transform="translate(-169.81 -617.36)"/><path class="cls-logo-5" d="M235.41,692.45c-5.19,1.68-12.37,2.15-20.16,1q-2.27-.22-4.61-.61-1.5-.25-3-.56a130.78,130.78,0,0,1-15.84-3.79q-4.39-1.33-8.61-2.91l1.51-6.4a2.7,2.7,0,0,1,.23-.53,2.57,2.57,0,0,1,1.45-1.18h0l.33.14h0l.33.14h0l.33.14h0l.33.14h0l.33.13h0l.33.13h0l.33.13.33.13h0l.32.13h0l.32.13.32.13h0l.32.13.32.13h0l.32.13.32.12h0l.32.12.32.12.32.12h0l.32.12h0l.32.12h0l.32.12.32.12h0l.32.12h0l.32.12h0l.32.11.32.11.32.11h0l.32.11.31.11.31.11.31.11.31.11.31.11.31.11.31.1.31.1.31.1h0l.31.1.31.1.31.1.31.1.31.1.31.1.31.1.31.09.3.09.3.09.3.09.3.09h0l.3.09.3.09.3.09.3.09.3.08.3.08.3.08.3.08.3.08.3.08.3.08.29.08.29.08.29.08.29.07,1,.23a83.62,83.62,0,0,0,22.1,2.1l.56-.07c5.53-.31,9.71-1.24,13.64-3.22.61-.3.87-.43,1.32-.69l.76-.44.53-.32.54-.35a17.49,17.49,0,0,0,4.6-4.86v-.06c.15-.26.31-.53.45-.78L247.15,685h0c-1.93,3.52-6,6-11.74,7.41Zm17.15-18.19h0Zm0,0h0Zm0,0v0h0Z" transform="translate(-169.81 -617.36)"/><path class="cls-logo-6" d="M177.51,690.14c-.06-.09-.16-.2-.24-.3a12.87,12.87,0,0,1-.82-1.33,17.49,17.49,0,0,1-1.91-6.42l0-.65V680c0-.53,0-.81.07-1.49.24-4.4,1.52-8.48,4-13.42l.22-.52a83.62,83.62,0,0,1,12.87-18.09l.71-.77a137.81,137.81,0,0,1,15.9-13.89,2.3,2.3,0,0,1-.13.4q-2.77,2.38-5.53,5c-13,12.36-22.06,25.34-24.69,34.34a20.31,20.31,0,0,0-1.08,4.75,25.94,25.94,0,0,0-.28,3.43v.08h0v.09h0V680h0v.11h0v.15c0,.39,0,.78,0,1.17h0v.12h0v.12h0v.12h0V682q.05.54.13,1.07v.09h0v.22h0v.11h0v.11h0a8.51,8.51,0,0,0,1.07,3h0a9,9,0,0,0,10.78,3.63l-5.5-4.64,7.9,6.66a21,21,0,0,1-4.88.8h-2.12l-.19,0h-.27l-.18,0h-.07l-.12,0h-.09l-.1,0-.15,0-.11,0h-.08l-.13,0-.1,0-.13,0-.09,0-.1,0-.08,0h0l-.14,0h0l-.12,0h0l-.12,0h0l-.14,0-.09,0-.09,0-.08,0-.1,0-.15-.05-.06,0-.11,0h0l-.1,0-.13-.05h0l-.12,0,0,0-.1,0-.13-.06-.11,0,0,0-.1,0-.12-.06-.1,0,0,0-.1-.05,0,0-.19-.1,0,0-.11-.06h0l-.21-.13h0l-.1-.06,0,0-.19-.13h0l-.09-.07,0,0-.28-.22,0,0-.08-.07,0,0-.15-.13h0l-.09-.08h0l-.16-.15,0,0-.07-.07v0h0l-.08-.08Zm1.18-7.16,0,0h0l0,0Zm.05.06,0,0h0l-.05-.05Zm.16.17,0,0h0l0,0Zm.05.05,0,0h0l0,0-.09-.09Zm.11.1,0,0h0l0,0Zm.06.06,0,0h0l0,0Zm.18.16h0l0,0,.06.05h0l-.1-.08Zm.11.09.11.09,0,0,0,0,0,0Zm.12.1,0,0h0l.06,0h0l.06,0h0l0,0h0l-.25-.19Zm.3.23h0Zm.08.06h0l.17.12h0l-.19-.14Zm.27.18h0l0,0h0l-.07,0Zm.63.39.44.23-.36-.19h0l-.06,0Zm.46.24h.06l-.06,0Zm.22.11h0l.1,0-.15-.07Zm.32.14h0l0,0-.08,0Zm1.17.43h0l.07,0Z" transform="translate(-169.81 -617.36)"/><path class="cls-logo-7" d="M177,680.57l-.4-.88c0,.68,0,1.33.06,2s.14,1.36.25,2a8.51,8.51,0,0,0,1.07,3h0a9,9,0,0,0,10.78,3.63l-5.5-4.64-.17,0h0l-.07,0h0l-.09,0h0l-.08,0h-.06l-.08,0h0l-.11,0-.06,0-.05,0h0l-.08,0h0l-.08,0h0l-.2-.08h0l-.07,0,0,0,0,0-.07,0h0l-.19-.08h0l-.08,0h0l-.08,0h0l-.39-.2h0l-.58-.35-.06,0,0,0h0l-.08-.06h0l-.17-.12h0l-.08-.06h0l-.06,0,0,0h0l-.06,0h0l-.06,0h0l-.05,0,0,0,0,0-.06,0h0l-.06-.05,0,0h0l-.14-.12h0l-.08-.07h0l0,0,0,0h0l-.05-.05h0l-.05-.05h0l0,0,0-.05h0l-.05-.06h0l0,0h0l0,0h-.1l-.32-.37-.23-.26h0A7.79,7.79,0,0,1,177,680.57Z" transform="translate(-169.81 -617.36)"/><path class="cls-logo-8" d="M170.95,666.85c1.14-5.33,4.32-11.79,9.18-18q1.32-1.86,2.83-3.69,1-1.17,2-2.27a130.78,130.78,0,0,1,11.2-11.82q3.35-3.14,6.83-6l4.78,4.51a2.71,2.71,0,0,1,.34.47,2.57,2.57,0,0,1,.3,1.85h0l-.28.21h0l-.28.21h0l-.28.21h0l-.28.22h0L207,633h0l-.28.22h0l-.28.22-.28.22h0l-.28.22h0l-.27.22-.27.22h0l-.27.22-.27.22h0l-.27.22-.27.22h0l-.27.22-.27.22-.27.22h0l-.26.22h0l-.26.22h0l-.26.22-.26.22h0l-.26.22h0l-.26.22h0l-.26.22-.26.22-.26.22h0l-.25.22-.25.22-.25.22-.25.22-.25.22-.25.22-.25.22-.25.22-.24.22-.24.22h0l-.24.22-.24.22-.24.22-.24.22-.24.22-.24.22-.24.22-.23.22-.23.22-.23.22-.23.22-.23.22h0l-.23.22-.23.22-.23.22-.22.22-.22.22-.22.22-.22.22-.22.22-.22.22-.22.22-.22.22-.21.22-.21.22-.21.22-.21.22-.71.77a83.62,83.62,0,0,0-12.87,18.09l-.22.52c-2.5,4.94-3.78,9-4,13.42,0,.68-.06,1-.07,1.49v1.49l0,.65a17.49,17.49,0,0,0,1.91,6.42v.06c.15.26.3.53.46.78l-5.53-8.78h0c-2.08-3.44-2.2-8.24-.55-13.87Zm7.17,23.95h0Zm0,0h0Zm0,0,0,0h0Z" transform="translate(-169.81 -617.36)"/><path class="cls-logo-9" d="M183.24,685.62l1.51-6.4a2.71,2.71,0,0,1,.23-.53,2.57,2.57,0,0,1,1.45-1.18h0l.18.08.14,0q3.45,1.21,7.09,2.29c17.21,5.09,33,6.43,42.08,4.21a20.3,20.3,0,0,0,4.66-1.44,25.94,25.94,0,0,0,3.11-1.47l.57-.78a7.78,7.78,0,0,0,.87-1.67h0l.11-.33.16-.46h0v0h0v0l0,0h0l0-.07h0l0-.07v0h0l0-.07v0h0l0-.07h0v-.1h0l0-.1h0l0-.18v-.12h0v-.21h0v-.31h0v-.1h0c0-.07,0-.14,0-.21h0v-.1h0v-.11q0-.33,0-.68h0q0-.22,0-.44v-.13h0v-.14l0-.21h0v-.24h0l0-.21v-.14h0v-.24l0-.11h0l0-.08v-.06l0-.08v0h0l0-.09v0l0-.07h0l0-.17-6.3,1.89a2.69,2.69,0,0,1-.58.06,2.57,2.57,0,0,1-1.75-.67h0l0-.2-.09-.11q-.68-3.59-1.56-7.29c-4.2-17.45-10.91-31.77-17.4-38.55a20.3,20.3,0,0,0-3.57-3.31,26,26,0,0,0-2.83-2l-1-.1a7.78,7.78,0,0,0-1.88.08h0l-.34.07-.48.09h-.28l-.07,0h0l-.07,0h0l-.07,0h0l-.07,0h0l-.06,0h0l-.1,0h0l-.18.06h0l-.07,0h0l-.07,0h0l0,0-.06,0h0l-.07,0h0l-.07,0h-.05l-.07,0h0l-.09,0h0l-.19.09h0l-.09,0h0l0,0-.06,0-.59.33h0l-.37.24h0l0,0-.07,0h0l-.07,0,0,0h0l-.17.12h0l-.06,0,0,0,0,0-.06,0h0l-.17.13h0l0,0-.07.06h0l-.07.06,0,0,0,0-.05,0-.09.07h0l-.06.05,0,0h0l-.06.05,0,0h0l-.07.06,0,0-.05,0h0l-.13.12,4.78,4.51a2.71,2.71,0,0,1,.34.47,2.57,2.57,0,0,1,.3,1.85h0l-.16.12-.05.14q-2.77,2.38-5.53,5c-13,12.36-22.06,25.34-24.69,34.34a20.31,20.31,0,0,0-1.08,4.75,25.93,25.93,0,0,0-.28,3.43l.4.88a7.78,7.78,0,0,0,1,1.59h0l.23.26.32.37h.1l0,0h0l0,0h0l.05.06h0l0,.05,0,0h0l.05.05h0l.05.05h0l0,0,0,0h0l.08.07h0l.14.12h0l0,0,.06.05h0l.06,0,0,0,0,0,.05,0h0l.06,0h0l.06,0h0l0,0,.06,0h0l.08.06h0l.17.12h0l.08.06h0l0,0,.06,0,.58.35h0l.39.2h0l.08,0h0l.08,0h0l.19.08h0l.07,0,0,0,0,0,.07,0h0l.2.08h0l.08,0h0l.08,0h0l.05,0,.06,0,.11,0h0l.08,0h.06l.08,0h0l.09,0h0l.07,0h0l.17,0Zm28.12-63.37,0,0h0Zm-34.78,57.5v0h0v0Zm67.19,1.37,0,0h0Z" transform="translate(-169.81 -617.36)"/><path class="cls-logo-10" d="M209.6,648.63a13.34,13.34,0,0,0-2.8,2.36h-.18a1.7,1.7,0,0,0-1.72,1.68,1.64,1.64,0,0,0,.18.75,12.74,12.74,0,0,0-1.53,4.87,12.48,12.48,0,0,0-2.92,1.64,11.74,11.74,0,0,1,9-11.28Zm-4.93,16.77v.1h0v.1h0l0,.2h0v.05h0c0,.06,0,.13,0,.19v0s0,.1,0,.14,0,.38,0,.57q-.59-.1-1.16-.24a3.83,3.83,0,0,1-1.91-3.21,3.63,3.63,0,0,1,1-2.52q.44-.33.93-.63a12.72,12.72,0,0,0,1.21,4.83q0,.17-.05.33Zm.09,2.84a8.64,8.64,0,0,0,3.33,5.21q.58.29,1.2.52a9.44,9.44,0,0,1-3-5.52l.86.06a13.47,13.47,0,0,0,9.75,4.13h.53a1.69,1.69,0,1,0-.41-.05,14.14,14.14,0,0,1-8.14-4.07,18.32,18.32,0,0,0,2.49-.32c7.41-1.46,12.57-7.12,11.81-12.82a11.74,11.74,0,0,1-3,13.47c.09,0-1.55.76.27-.11a10.2,10.2,0,0,0,4.7-5.43,14.3,14.3,0,0,0-.34-9.36,14.73,14.73,0,0,0-3-5.08,12.58,12.58,0,0,0-4.58-3.11,13.71,13.71,0,0,0-4.71-.71,15.93,15.93,0,1,0,5.7,30.8,14.47,14.47,0,0,0,7.75-8.17,13.47,13.47,0,0,1-23.91-.2,15,15,0,0,0,2.74.78Zm1.59-3.27a13,13,0,0,0,1.26,2.09,18.23,18.23,0,0,0,2.84-.26c7.2-1.23,12.39-6.45,12.17-12l-.93,0a1.22,1.22,0,0,1-2.41.28,28,28,0,0,0-5,1.31,13.53,13.53,0,0,0-2,.95,13.9,13.9,0,0,1,5.72,2.3.93.93,0,0,1,1.4,1.2,8.92,8.92,0,0,1,.62.7q-.33-.31-.7-.6a.93.93,0,0,1-1.52-1,14.22,14.22,0,0,0-6.84-1.74l-.72.54a11.89,11.89,0,0,0-3.87,6.16Zm16.19-10.78a11.73,11.73,0,0,0-10.17-5.89h-.58a13.74,13.74,0,0,0-3.83,3.28,1.65,1.65,0,0,1,.39,1.07,1.7,1.7,0,0,1-1.72,1.68,1.78,1.78,0,0,1-.35,0,12.52,12.52,0,0,0-1,3.41,16.37,16.37,0,0,1,4.19-.54h.4a15.45,15.45,0,0,1,2.86-1.36,28.47,28.47,0,0,1,6.64-1.52,1.21,1.21,0,0,1,2.15-.12c.36,0,.71,0,1,0Zm-14.44,4.32a14,14,0,0,0-3,.89v.15a12.51,12.51,0,0,0,.34,2.91,10,10,0,0,1,1.44-2.53,7.43,7.43,0,0,1,1.2-1.43Zm2.62,13.8a.93.93,0,1,1-1,.93.94.94,0,0,1,1-.93Zm-9.29-6.23h0Zm21.6-11,.08.18-.08-.18Zm-13.22-6.54-.17,0Z" transform="translate(-169.81 -617.36)"/><path class="cls-logo-11" d="M270.69,665.75l-1.26,4.56a.3.3,0,0,1-.29.22h-3.93a.3.3,0,0,1-.29-.39l5.77-18.87a.3.3,0,0,1,.29-.21h5.33a.3.3,0,0,1,.29.21l5.85,18.87a.3.3,0,0,1-.29.39h-4.11a.3.3,0,0,1-.29-.21l-1.37-4.57a.3.3,0,0,0-.29-.21H271A.3.3,0,0,0,270.69,665.75Zm4.6-3.51a.3.3,0,0,0,.29-.38l-1.1-3.75c-.35-1.16-.69-2.6-1-3.75h-.06c-.29,1.16-.58,2.63-.9,3.75l-1,3.75a.3.3,0,0,0,.29.38Z" transform="translate(-169.81 -617.36)"/><path class="cls-logo-11" d="M288.49,654.75h-4.63a.3.3,0,0,1-.3-.3v-3.1a.3.3,0,0,1,.3-.3h14.36a.3.3,0,0,1,.3.3v3.1a.3.3,0,0,1-.3.3h-4.71a.3.3,0,0,0-.3.3v15.17a.3.3,0,0,1-.3.3h-3.82a.3.3,0,0,1-.3-.3V655.05A.3.3,0,0,0,288.49,654.75Z" transform="translate(-169.81 -617.36)"/><path class="cls-logo-11" d="M319.36,660.59c0,6.38-3.87,10.25-9.56,10.25s-9.16-4.36-9.16-9.91c0-5.83,3.73-10.2,9.47-10.2C316.09,650.74,319.36,655.21,319.36,660.59Zm-14.07.26c0,3.81,1.79,6.5,4.74,6.5s4.68-2.83,4.68-6.61c0-3.5-1.68-6.5-4.71-6.5S305.29,657.06,305.29,660.85Z" transform="translate(-169.81 -617.36)"/><path class="cls-logo-11" d="M339.25,663.07c-.09-2.34-.17-5.17-.17-8H339c-.61,2.48-1.42,5.26-2.17,7.54l-2.3,7.39a.3.3,0,0,1-.29.21h-3A.3.3,0,0,1,331,670l-2-7.32c-.63-2.28-1.3-5.05-1.76-7.6h-.06c-.12,2.63-.2,5.63-.35,8.06l-.33,7.11a.3.3,0,0,1-.3.29h-3.47a.3.3,0,0,1-.3-.32l1.2-18.87a.3.3,0,0,1,.3-.28h5.36a.3.3,0,0,1,.29.22l1.84,6.28c.61,2.25,1.21,4.68,1.65,7h.09c.55-2.25,1.21-4.82,1.85-7l2-6.26a.3.3,0,0,1,.29-.21h5.25a.3.3,0,0,1,.3.28l1,18.87a.3.3,0,0,1-.3.32h-3.7a.3.3,0,0,1-.3-.29Z" transform="translate(-169.81 -617.36)"/><path class="cls-logo-11" d="M354.1,651.05a.3.3,0,0,1,.3.3v8.34h.78l6.58-8.52a.3.3,0,0,1,.24-.12h2.25a.3.3,0,0,1,.23.49l-6.63,8a.3.3,0,0,0,.18.48c2.83.57,4,2.46,4.95,4.94.66,1.83,1.18,3.49,1.93,5.09a.3.3,0,0,1-.27.43h-2.05a.3.3,0,0,1-.27-.16,36.77,36.77,0,0,1-1.68-4.43c-.9-2.57-2.14-4.33-5.43-4.33h-.81v8.63a.3.3,0,0,1-.3.3h-1.88a.3.3,0,0,1-.3-.3V651.35a.3.3,0,0,1,.3-.3Z" transform="translate(-169.81 -617.36)"/><path class="cls-logo-11" d="M384.53,660.59c0,6.7-4.07,10.25-9,10.25-5.14,0-8.75-4-8.75-9.88,0-6.18,3.84-10.23,9-10.23S384.53,654.81,384.53,660.59Zm-15.11.32c0,4.16,2.25,7.89,6.21,7.89s6.24-3.67,6.24-8.09c0-3.87-2-7.91-6.21-7.91S369.42,656.63,369.42,660.9Z" transform="translate(-169.81 -617.36)"/><path class="cls-logo-11" d="M405,662c-.14-2.71-.32-6-.29-8.41h-.09c-.66,2.28-1.47,4.71-2.46,7.39l-3.37,9.25a.3.3,0,0,1-.28.2H397a.3.3,0,0,1-.28-.2l-3.08-9.07c-.92-2.74-1.7-5.26-2.25-7.57h-.06c-.06,2.43-.2,5.69-.37,8.61l-.5,8.07a.3.3,0,0,1-.3.28h-1.79a.3.3,0,0,1-.3-.32l1.32-18.87a.3.3,0,0,1,.3-.28h2.71a.3.3,0,0,1,.28.2l3.25,9.22c.81,2.4,1.47,4.54,2,6.56H398c.49-2,1.18-4.1,2.05-6.56l3.39-9.22a.3.3,0,0,1,.28-.2h2.71a.3.3,0,0,1,.3.28l1.18,18.87a.3.3,0,0,1-.3.32h-1.85a.3.3,0,0,1-.3-.28Z" transform="translate(-169.81 -617.36)"/><path class="cls-logo-11" d="M426.73,651.35v18.87a.3.3,0,0,1-.3.3h-1.91a.3.3,0,0,1-.3-.3V653.46a.3.3,0,0,0-.3-.3h-8.44a.3.3,0,0,0-.3.3v16.76a.3.3,0,0,1-.3.3H413a.3.3,0,0,1-.3-.3V651.35a.3.3,0,0,1,.3-.3h13.47A.3.3,0,0,1,426.73,651.35Z" transform="translate(-169.81 -617.36)"/><path class="cls-logo-11" d="M444.88,651.35v18.87a.3.3,0,0,1-.3.3h-1.94a.3.3,0,0,1-.3-.3V653.46a.3.3,0,0,0-.3-.3h-5.84a.3.3,0,0,0-.3.3v5.59c0,4.22-.17,8.93-2.92,10.77a6,6,0,0,1-2.7.92.3.3,0,0,1-.31-.26l-.23-1.48a.3.3,0,0,1,.22-.33,4.52,4.52,0,0,0,1.78-1c1.56-1.53,1.7-5.31,1.7-8.43v-7.9a.3.3,0,0,1,.3-.3h10.84A.3.3,0,0,1,444.88,651.35Z" transform="translate(-169.81 -617.36)"/><path class="cls-logo-11" d="M459.89,661.4h-7a.3.3,0,0,0-.3.3v6.42a.3.3,0,0,0,.3.3h7.83a.3.3,0,0,1,.3.3v1.51a.3.3,0,0,1-.3.3H450.41a.3.3,0,0,1-.3-.3V651.35a.3.3,0,0,1,.3-.3h9.91a.3.3,0,0,1,.3.3v1.51a.3.3,0,0,1-.3.3h-7.4a.3.3,0,0,0-.3.3V659a.3.3,0,0,0,.3.3h7a.3.3,0,0,1,.3.3v1.48A.3.3,0,0,1,459.89,661.4Z" transform="translate(-169.81 -617.36)"/><path class="cls-logo-11" d="M467.37,651.05a.3.3,0,0,1,.3.3v8.34h.78l6.58-8.52a.3.3,0,0,1,.24-.12h2.25a.3.3,0,0,1,.23.49l-6.63,8a.3.3,0,0,0,.18.48c2.83.57,4,2.46,4.95,4.94.66,1.83,1.18,3.49,1.93,5.09a.3.3,0,0,1-.27.43h-2.05a.3.3,0,0,1-.27-.16,36.77,36.77,0,0,1-1.68-4.43c-.9-2.57-2.14-4.33-5.43-4.33h-.81v8.63a.3.3,0,0,1-.3.3h-1.88a.3.3,0,0,1-.3-.3V651.35a.3.3,0,0,1,.3-.3Z" transform="translate(-169.81 -617.36)"/><path class="cls-logo-11" d="M485.94,653.19h-5.32a.3.3,0,0,1-.3-.3v-1.54a.3.3,0,0,1,.3-.3h13.81a.3.3,0,0,1,.3.3v1.54a.3.3,0,0,1-.3.3h-5.35a.3.3,0,0,0-.3.3v16.73a.3.3,0,0,1-.3.3h-1.94a.3.3,0,0,1-.3-.3V653.49A.3.3,0,0,0,485.94,653.19Z" transform="translate(-169.81 -617.36)"/></svg>