<svg xmlns="http://www.w3.org/2000/svg" width="12" height="14" viewBox="0 0 12 14">
<defs>
    <style>
      .cls-user-1 {
        fill: #8aaed5;
        stroke: #8aaed5;
        stroke-width: 0.8px;
        fill-rule: evenodd;
      }
    </style>
  </defs>
  <path class="cls-user-1" d="M1114.96,73.513h0.08a2.531,2.531,0,0,0,1.93-.835,5.087,5.087,0,0,0,.86-3.42,2.8,2.8,0,0,0-1.33-2.483,3.029,3.029,0,0,0-1.47-.386h-0.04a3.019,3.019,0,0,0-1.47.375,2.766,2.766,0,0,0-1.34,2.494,5,5,0,0,0,.85,3.42A2.531,2.531,0,0,0,1114.96,73.513Zm-2.05-4.186V69.305a1.987,1.987,0,0,1,2.07-2.174h0.04a2,2,0,0,1,2.07,2.174v0.022a4.275,4.275,0,0,1-.67,2.861,1.8,1.8,0,0,1-1.41.586h-0.02a1.78,1.78,0,0,1-1.41-.586A4.336,4.336,0,0,1,1112.91,69.327Zm7.7,7.565V76.815a2.15,2.15,0,0,0-1.24-2.215l-0.03-.008a7.792,7.792,0,0,1-2.26-1.035,0.375,0.375,0,0,0-.52.09,0.383,0.383,0,0,0,.09.515,8.637,8.637,0,0,0,2.5,1.142,1.46,1.46,0,0,1,.72,1.533,0.157,0.157,0,0,0,.01.069,5.736,5.736,0,0,1-.06.846,10.876,10.876,0,0,1-9.63,0,4.635,4.635,0,0,1-.06-0.846V76.835a1.451,1.451,0,0,1,.73-1.533,8.432,8.432,0,0,0,2.49-1.142,0.368,0.368,0,0,0-.42-0.6,7.772,7.772,0,0,1-2.27,1.035,0.039,0.039,0,0,0-.02.008,2.154,2.154,0,0,0-1.24,2.215v0.077a3.826,3.826,0,0,0,.14,1.24,0.3,0.3,0,0,0,.14.172,11.507,11.507,0,0,0,10.66,0,0.4,0.4,0,0,0,.14-0.172A4.381,4.381,0,0,0,1120.61,76.892Z" transform="translate(-1109 -66)"/>
</svg>
